<svg width="288" height="288" viewBox="0 0 288 288" fill="none" xmlns="http://www.w3.org/2000/svg">
<path d="M84 36H48C41.3726 36 36 41.3726 36 48V84C36 90.6274 41.3726 96 48 96H84C90.6274 96 96 90.6274 96 84V48C96 41.3726 90.6274 36 84 36Z" stroke="white" stroke-width="17"/>
<path d="M84 192H48C41.3726 192 36 197.373 36 204V240C36 246.627 41.3726 252 48 252H84C90.6274 252 96 246.627 96 240V204C96 197.373 90.6274 192 84 192Z" stroke="white" stroke-width="17"/>
<path d="M240 36H204C197.373 36 192 41.3726 192 48V84C192 90.6274 197.373 96 204 96H240C246.627 96 252 90.6274 252 84V48C252 41.3726 246.627 36 240 36Z" stroke="white" stroke-width="17" stroke-linejoin="round"/>
<path d="M90 120H78C74.6863 120 72 122.686 72 126V138C72 141.314 74.6863 144 78 144H90C93.3137 144 96 141.314 96 138V126C96 122.686 93.3137 120 90 120Z" fill="white"/>
<path d="M150 24H162C165.313 24 168 26.6863 168 30V66C168 69.3137 165.313 72 162 72H150C146.687 72 144 74.6863 144 78V90C144 93.3137 141.313 96 138 96H126C122.687 96 120 93.3137 120 90V54C120 50.6863 122.687 48 126 48H138C141.313 48 144 45.3137 144 42V30C144 26.6863 146.687 24 150 24Z" fill="white"/>
<path d="M138 144H102C98.6863 144 96 146.686 96 150V162C96 165.314 98.6863 168 102 168H138C141.314 168 144 165.314 144 162V150C144 146.686 141.314 144 138 144Z" fill="white"/>
<path d="M258 120H222C218.686 120 216 122.686 216 126V138C216 141.314 218.686 144 222 144H258C261.314 144 264 141.314 264 138V126C264 122.686 261.314 120 258 120Z" fill="white"/>
<path d="M186 216H150C146.686 216 144 218.686 144 222V234C144 237.314 146.686 240 150 240H186C189.314 240 192 237.314 192 234V222C192 218.686 189.314 216 186 216Z" fill="white"/>
<path d="M138 192H126C122.686 192 120 194.686 120 198V210C120 213.314 122.686 216 126 216H138C141.314 216 144 213.314 144 210V198C144 194.686 141.314 192 138 192Z" fill="white"/>
<path d="M144 138V126C144 122.687 146.687 120 150 120H186C189.313 120 192 122.687 192 126V168H210C213.313 168 216 170.687 216 174V186C216 189.313 213.313 192 210 192H192H174C170.687 192 168 189.313 168 186V150C168 146.687 165.313 144 162 144H150C146.687 144 144 141.313 144 138Z" fill="white"/>
<path d="M198 240H210C213.313 240 216 237.313 216 234V222C216 218.687 218.687 216 222 216H234C237.313 216 240 213.313 240 210V174C240 170.687 242.687 168 246 168H258C261.313 168 264 170.687 264 174V192V216V234C264 237.313 261.313 240 258 240H246C242.687 240 240 242.687 240 246V258C240 261.313 237.313 264 234 264H198C194.687 264 192 261.313 192 258V246C192 242.687 194.687 240 198 240Z" fill="white"/>
<path d="M24 162V126C24 122.687 26.6863 120 30 120H42C45.3137 120 48 122.687 48 126V138C48 141.313 50.6863 144 54 144H66C69.3137 144 72 146.687 72 150V162C72 165.313 69.3137 168 66 168H30C26.6863 168 24 165.313 24 162Z" fill="white"/>
<path d="M162 264H126C122.687 264 120 261.313 120 258V246C120 242.687 122.687 240 126 240H138C141.313 240 144 237.313 144 234V222C144 218.687 146.687 216 150 216H186C189.313 216 192 218.687 192 222V234C192 237.313 189.313 240 186 240H174C170.687 240 168 242.687 168 246V258C168 261.313 165.313 264 162 264Z" fill="white"/>
<rect x="53" y="53" width="25" height="25" rx="3" fill="#F49518"/>
<rect x="53" y="210" width="25" height="25" rx="3" fill="#F49518"/>
<rect x="210" y="53" width="25" height="25" rx="3" fill="#F49518"/>
</svg>
